PathFileType	4	(X/Y/Z)	Patient4_TMGait_0pt5_01_left_18.trc.trc
DataRate	CameraRate	NumFrames	NumMarkers	Units	OrigDataRate	OrigDataStartFrame	OrigNumFrames
71.065989847716	71.065989847716	4	33	mm	71.065989847716	71	       141
Frame#	Time	L.ASIS			Sacral			L.Shoulder			Chest			R.Shoulder			Neck			R.ASIS			R.Thigh.Superior			R.Thigh.Lateral			R.Thigh.Inferior			R.Patella			L.Thigh.Superior			L.Thigh.Lateral			L.Thigh.Inferior			L.Patella			L.Shank.Superior			L.Shank.Lateral			L.Shank.Inferior			R.Shank.Superior			R.Shank.Lateral			R.Shank.Inferior			R.Heel			R.Midfoot.Superior			R.Midfoot.Lateral			R.Toe			L.Heel			L.Midfoot.Lateral			L.Midfoot.Superior			L.Toe			L.Elbow			L.Wrist			R.Elbow			R.Wrist			
		X1	Y1	Z1	X2	Y2	Z2	X3	Y3	Z3	X4	Y4	Z4	X5	Y5	Z5	X6	Y6	Z6	X7	Y7	Z7	X8	Y8	Z8	X9	Y9	Z9	X10	Y10	Z10	X11	Y11	Z11	X12	Y12	Z12	X13	Y13	Z13	X14	Y14	Z14	X15	Y15	Z15	X16	Y16	Z16	X17	Y17	Z17	X18	Y18	Z18	X19	Y19	Z19	X20	Y20	Z20	X21	Y21	Z21	X22	Y22	Z22	X23	Y23	Z23	X24	Y24	Z24	X25	Y25	Z25	X26	Y26	Z26	X27	Y27	Z27	X28	Y28	Z28	X29	Y29	Z29	X30	Y30	Z30	X31	Y31	Z31	X32	Y32	Z32	X33	Y33	Z33	

71	25.005000000000	856.226505052508	953.843828240167	295.791098494293	635.211253480762	1003.833007893322	437.922728220092	826.066055520674	1424.990112808856	257.549161021555	913.714252564345	1358.229091324580	428.639825567772	818.247717619027	1438.187935725593	593.810032895207	815.702000639534	1491.305007699418	406.079548039711	851.689202030424	939.793866958866	572.307682459610	918.985773727838	761.313507802112	547.468955480291	868.050931302402	641.567069117333	616.459372608784	955.640501650071	600.052741737646	537.502670446224	985.646887020768	519.598425369388	552.000188988839	858.943417058593	729.634830902664	326.705742048947	743.371435299960	635.008959636652	264.544103623362	801.485020389884	543.092089235574	331.410498842694	785.859523743630	476.919102063906	342.508754723675	755.330999966819	411.228639000423	335.563950292934	657.625684732994	302.794822066646	285.240430756423	698.464262492208	190.872340366814	362.996189234518	973.843844490195	432.264980649864	561.322782347283	926.362647397053	316.378321431566	623.579063250681	998.440950449797	233.491952022700	570.776617535779	912.014805309518	44.182894662033	541.119267027108	1071.343320393926	124.082174494837	582.209645833052	995.255655926965	45.908278661828	615.264112968810	1196.483470300854	91.928874453391	611.147411658373	560.828781955263	38.683696460752	409.156849650246	635.793909708501	34.719045169783	329.635858989309	719.107747984103	95.154198158136	356.296135965633	847.573512595402	42.531838470838	331.615468948415	872.611149970399	1085.520035626331	116.534796052287	1118.810910777909	1005.086214734646	104.449575380921	659.610131284745	1138.049441662630	708.511100756015	611.853408251181	882.144814192528	726.245902735987	
72	25.019071428571	857.957577010087	952.730150261634	297.936817096848	636.827423167564	1002.032559870342	439.909598178747	825.876564935777	1423.964566631583	260.108677012151	913.754182519750	1357.581366235985	431.220104601350	817.738348995548	1436.948858957935	596.422982837761	815.195283370483	1490.138410802058	408.693963531530	853.648529898994	938.479827330843	574.414423099346	920.319268564718	758.682587881433	549.285417790222	867.508292430816	639.021008290852	617.166406100493	954.822761879467	597.407703588930	538.143150721996	983.612783488131	517.284824046477	551.712169733402	859.199427792632	728.090156292920	328.332189799745	742.667828126548	634.398527507311	265.990830767618	799.790493096837	541.889858195549	332.801635198390	783.579036143177	475.541687545493	343.809095784942	752.208620470380	410.146587952535	336.675746437062	653.167034304232	302.992843542735	285.990433125354	692.630352768474	190.341766236977	363.366544260749	972.425778058336	429.653551634875	561.082450294792	925.232081472959	313.454657009137	622.758017896032	997.559843521280	231.035488517007	569.770491289328	911.203373555403	42.831680336568	539.400498310637	1070.876804008932	121.430222946970	580.931236327614	994.058166387780	44.263827804104	613.951884805202	1195.564542505199	88.280406136672	610.456251275766	553.746817084926	38.700385473163	409.073768972400	628.743971842632	34.697837479587	329.618947077929	712.068221553297	95.115666899228	356.364178423903	840.541135783700	42.309566329835	331.613185525868	871.004318445789	1083.866862367192	119.649857184363	1117.215210684488	1003.810008940221	107.320036652953	658.101100405150	1137.363338685830	709.954258884205	610.058880978504	881.307039478674	726.618048497215	
73	25.033142857143	859.947806932637	951.626119067225	300.193044406548	638.625407272158	1000.182911417045	442.157261299636	825.560381477401	1422.958783164762	262.833919254328	913.838190122269	1356.997673161777	433.909700534398	817.265237176093	1435.630880762802	599.226016403492	814.621246516043	1488.969297410861	411.498264202531	855.919862385472	937.185889676462	576.589580962996	922.290281315310	756.218010779471	551.002576816717	867.650049289883	636.660283381978	617.851469868563	954.664023433210	595.025960944254	538.726638758712	982.105682707900	514.883454170718	551.424403628262	859.706654538012	726.508104478972	330.060958871347	742.217976171898	633.743607998117	267.625562132963	798.410170976951	540.636757483086	334.366058078683	781.649512118818	474.049166307290	345.277234893371	749.359446434568	408.980724849985	337.927093628842	648.870206190544	303.236560241381	286.871556605028	686.851131296590	189.800123350942	363.801103464747	971.139325116266	426.843252977700	560.873605101664	923.585366065319	310.652270226444	622.062746760512	995.525646086528	228.264417427507	568.856968809445	907.964917222360	41.830734237593	538.018651184626	1068.388589927146	118.205845548106	579.653999228623	990.511610541245	42.579714132049	612.914452418134	1192.536993350781	83.433707328233	609.733898273173	546.647201083411	38.757824095970	408.974716732725	621.704675905534	34.679926292580	329.607047857129	705.050776138547	95.097941294381	356.428082334461	833.540569737929	42.062777966367	331.599701083461	869.085211245119	1082.116853555708	123.016539890468	1115.047716995837	1001.480204985742	110.352933384025	657.722212079156	1135.872584233578	711.576355107624	610.229090963198	879.485121281401	727.133400145373	
74	25.047214285714	862.130347140237	950.580557023803	302.554924978596	640.559844547375	998.361562735997	444.657717588490	825.172754778074	1422.024571323738	265.714769060091	913.993601055295	1356.501072143115	436.701364180886	816.876071976611	1434.284747906666	602.208708177553	814.040796854527	1487.853321624300	414.481682396711	858.439632786622	935.981463009743	578.833163027902	924.823751834933	754.025550520893	552.618620207717	868.470677427780	634.584166349453	618.552411551389	955.174954584854	593.005842566444	539.290225522441	981.170360229308	512.515947941159	551.187362013952	860.467541642876	724.954297410270	331.909662612847	742.076963167245	633.059029084226	269.461857230314	797.449958026385	539.364953883062	336.109678841094	780.197830428890	472.443847269744	346.895332573122	746.874531437718	407.739532495351	339.309414556900	644.804053195371	303.565233791021	287.890514063173	681.170684664393	189.276149869700	364.290171823502	970.098832878359	424.001647978852	560.743297705164	921.678108634517	308.077547968809	621.562327968413	992.685392756518	225.349139684865	568.083528021873	902.861818983416	41.160575214495	536.989120639877	1064.343195590056	114.654550546471	578.465741057156	985.177156721718	40.935931359157	612.168948653799	1187.903210800635	77.806598758911	609.033432110743	539.537656529884	38.933350972633	408.857138948070	614.685194317017	34.691454910184	329.601269789541	698.090128708579	95.108193484082	356.472321285720	826.584586779127	41.783849153044	331.573908405132	866.842795042243	1080.316222891377	126.631158948181	1112.282168499889	998.126442820986	113.545853702526	658.505285119071	1133.632196334284	713.394927003828	612.371382859672	876.756101383198	727.824401644243	
